HIERARCHY
ROOT Hips
{
	OFFSET 0.000000 88.474243 0.000000
	CHANNELS 6 Xposition Yposition Zposition Zrotation Yrotation Xrotation 
	JOINT Hips_Spine
	{
		OFFSET 0.000000 0.000000 0.000000
		CHANNELS 3 Zrotation Yrotation Xrotation
		JOINT Spine
		{
			OFFSET 0.005100 8.711998 -0.691000
			CHANNELS 3 Zrotation Yrotation Xrotation
			JOINT Spine1
			{
				OFFSET -0.009200 8.660301 -1.275000
				CHANNELS 3 Zrotation Yrotation Xrotation
				JOINT Spine2
				{
					OFFSET 0.006300 9.852501 -1.857000
					CHANNELS 3 Zrotation Yrotation Xrotation
					JOINT Spine2_Neck
					{
						OFFSET 0.000000 0.000000 0.000000
						CHANNELS 3 Zrotation Yrotation Xrotation
						JOINT Neck
						{
							OFFSET 0.016300 11.420799 -0.263300
							CHANNELS 3 Zrotation Yrotation Xrotation
							End Site #name: Head
							{
								OFFSET -0.019200 9.262405 2.362500
							}
						}
					}
					JOINT Spine2_LeftShoulder
					{
						OFFSET 0.000000 0.000000 0.000000
						CHANNELS 3 Zrotation Yrotation Xrotation
						JOINT LeftShoulder
						{
							OFFSET 5.616900 6.732201 -0.345700
							CHANNELS 3 Zrotation Yrotation Xrotation
							JOINT LeftArm
							{
								OFFSET 10.664888 -0.183372 -2.440700
								CHANNELS 3 Zrotation Yrotation Xrotation
								JOINT LeftForeArm
								{
									OFFSET 27.459126 0.000000 0.000000
									CHANNELS 3 Zrotation Yrotation Xrotation
									End Site #name: LeftHand
									{
										OFFSET 21.306858 0.000000 0.000000
									}
								}
							}
						}
					}
					JOINT Spine2_RightShoulder
					{
						OFFSET 0.000000 0.000000 0.000000
						CHANNELS 3 Zrotation Yrotation Xrotation
						JOINT RightShoulder
						{
							OFFSET -5.580300 6.737503 -0.344400
							CHANNELS 3 Zrotation Yrotation Xrotation
							JOINT RightArm
							{
								OFFSET -10.679335 -0.188484 -2.383900
								CHANNELS 3 Zrotation Yrotation Xrotation
								JOINT RightForeArm
								{
									OFFSET -27.503529 0.000000 0.000000
									CHANNELS 3 Zrotation Yrotation Xrotation
									End Site #name: RightHand
									{
										OFFSET -21.306808 0.000000 0.000000
									}
								}
							}
						}
					}
				}
			}
		}
	}
	JOINT Hips_LeftUpLeg
	{
		OFFSET 0.000000 0.000000 0.000000
		CHANNELS 3 Zrotation Yrotation Xrotation
		JOINT LeftUpLeg
		{
			OFFSET 6.857700 -6.739601 0.312100
			CHANNELS 3 Zrotation Yrotation Xrotation
			JOINT LeftLeg
			{
				OFFSET -0.367590 -34.731552 -4.572400
				CHANNELS 3 Zrotation Yrotation Xrotation
				End Site #name: LeftFoot
				{
					OFFSET 0.367590 -34.656704 -6.067400
				}
			}
		}
	}
	JOINT Hips_RightUpLeg
	{
		OFFSET 0.000000 0.000000 0.000000
		CHANNELS 3 Zrotation Yrotation Xrotation
		JOINT RightUpLeg
		{
			OFFSET -6.876100 -6.733299 0.301000
			CHANNELS 3 Zrotation Yrotation Xrotation
			JOINT RightLeg
			{
				OFFSET 0.347353 -34.795158 -4.515900
				CHANNELS 3 Zrotation Yrotation Xrotation
				End Site #name: RightFoot
				{
					OFFSET -0.347353 -34.589367 -6.070300
				}
			}
		}
	}
}
MOTION
Frames: 16
Frame Time: 0.041667
2.788413 0.711164 -5.056238 174.512139 -26.196537 -178.572797 0.000000 -0.000000 0.000000 -7.293867 -0.125406 3.350127 0.626862 -2.286855 -1.372430 0.000000 0.000000 0.000000 1.111046 -1.943682 -0.672987 2.957005 -33.529222 -4.661273 0.090155 -1.617466 -1.729972 2.419658 -8.431565 1.032713 -86.693528 -22.071488 8.656283 3.840136 -19.002689 -0.184232 0.454854 -2.511730 -1.535597 14.924039 14.153828 3.574608 56.302017 10.978769 11.004774 3.239723 42.863215 6.535688 0.000000 0.000000 -0.000000 -3.226979 16.618229 -4.240827 0.062157 -40.464762 -15.138035 0.000000 0.000000 -0.000000 -4.291658 -55.059452 -11.076014 -11.360827 -4.886277 21.941713 
2.856317 0.771733 -5.190531 174.536003 -25.690700 -178.574689 0.000000 -0.000000 0.000000 -7.600351 -0.008593 3.500992 0.622329 -2.159378 -1.470324 0.000000 0.000000 0.000000 1.073959 -1.886262 -0.756330 2.653510 -32.441020 -5.211630 0.089034 -1.548280 -1.773016 2.443727 -8.638030 1.055589 -86.359706 -22.163890 9.274828 3.813120 -20.511807 -0.390215 0.464679 -2.417678 -1.630222 14.632611 14.177914 3.619509 56.291157 10.928487 11.379993 2.136965 43.135922 5.700440 0.000000 0.000000 -0.000000 -3.295170 16.409230 -4.735737 -0.114778 -40.112704 -14.567665 0.000000 0.000000 -0.000000 -4.260638 -54.321472 -10.768445 -10.851267 -3.963019 21.365386 
2.925694 0.834270 -5.319912 174.513725 -25.145814 -178.558666 -0.000000 -0.000000 0.000000 -7.921619 0.121578 3.691300 0.605688 -2.016220 -1.565111 0.000000 0.000000 0.000000 1.036623 -1.822227 -0.853523 2.342905 -31.236574 -5.820972 0.089529 -1.467554 -1.816214 2.451066 -8.799050 1.077648 -85.896874 -22.263567 9.874604 3.813372 -22.229637 -0.583792 0.475832 -2.313829 -1.717483 14.323534 14.215566 3.706257 56.284775 10.889828 11.723804 1.036811 43.333387 4.869938 0.000000 0.000000 -0.000000 -3.363564 16.198556 -5.250910 -0.306711 -39.775232 -13.965842 0.000000 0.000000 -0.000000 -4.261558 -53.675675 -10.397254 -10.349200 -2.982386 20.756623 
2.997216 0.897451 -5.445356 174.429780 -24.588967 -178.529386 -0.000000 -0.000000 0.000000 -8.236802 0.259598 4.000654 0.565338 -1.866087 -1.641201 0.000000 0.000000 0.000000 0.994544 -1.752092 -0.971282 2.106062 -29.965148 -6.522055 0.087171 -1.374893 -1.859363 2.467047 -8.948295 1.094775 -85.415244 -22.331441 10.268695 3.886268 -24.096764 -0.713387 0.474987 -2.203349 -1.809654 14.015885 14.292864 3.792652 56.267569 10.856585 12.020803 0.030068 43.587332 4.021462 0.000000 0.000000 -0.000000 -3.438326 15.971418 -5.781068 -0.507384 -39.471117 -13.353509 0.000000 0.000000 -0.000000 -4.333079 -53.301253 -9.953466 -9.804996 -2.026234 20.101427 
3.071283 0.958914 -5.567622 174.316954 -23.985500 -178.492431 -0.000000 -0.000000 0.000000 -8.504129 0.381571 4.339130 0.507030 -1.713643 -1.690420 0.000000 0.000000 0.000000 0.949073 -1.675863 -1.079868 2.055583 -28.492694 -7.435485 0.074591 -1.279699 -1.886019 2.492350 -9.084996 1.113486 -84.988732 -22.416936 10.509007 4.038601 -26.081964 -0.812579 0.457486 -2.088828 -1.865749 13.724248 14.408743 3.898131 56.311027 10.878373 12.296505 -0.694279 43.888231 3.336912 0.000000 0.000000 -0.000000 -3.503236 15.723977 -6.292594 -0.732755 -39.199798 -12.723936 0.000000 0.000000 -0.000000 -4.504753 -53.126591 -9.467898 -9.196814 -1.187786 19.445088 
3.148777 1.016521 -5.687784 174.166775 -23.551455 -178.433519 -0.000000 -0.000000 0.000000 -8.747447 0.485530 4.684694 0.428754 -1.560177 -1.693805 0.000000 0.000000 0.000000 0.904248 -1.607755 -1.150958 1.965294 -26.864069 -8.435308 0.052440 -1.182939 -1.875623 2.525400 -9.215350 1.134255 -84.613293 -22.509883 10.677041 4.217322 -28.126022 -0.911890 0.424348 -1.975025 -1.867808 13.438393 14.570299 3.985958 56.333963 10.930819 12.450096 -0.975116 44.353696 3.020970 0.000000 0.000000 -0.000000 -3.569571 15.454966 -6.800685 -0.985714 -38.950366 -12.064169 0.000000 0.000000 -0.000000 -4.780599 -53.282078 -8.971562 -8.517336 -0.375037 18.950552 
3.231413 1.067402 -5.806408 173.966360 -23.355283 -178.344305 -0.000000 -0.000000 0.000000 -8.991993 0.587927 4.994003 0.339433 -1.411395 -1.649470 0.000000 0.000000 0.000000 0.859548 -1.549576 -1.166159 1.816133 -25.156490 -9.480317 0.025221 -1.081127 -1.835526 2.558898 -9.318394 1.149382 -84.258421 -22.636147 10.806548 4.403095 -30.197838 -1.056289 0.382970 -1.866456 -1.815766 13.171185 14.800950 4.064020 56.314235 11.000957 12.456950 -1.242588 45.023801 2.735490 0.000000 0.000000 -0.000000 -3.638919 15.177989 -7.294417 -1.263918 -38.726209 -11.357028 0.000000 -0.000000 -0.000000 -5.172553 -53.827099 -8.394370 -7.674367 0.531209 18.518885 
3.318473 1.110674 -5.921499 173.729365 -23.546793 -178.228551 -0.000000 -0.000000 0.000000 -9.230413 0.665385 5.251427 0.249556 -1.328007 -1.602511 0.000000 0.000000 0.000000 0.821065 -1.508232 -1.135693 1.620944 -23.278952 -10.501654 -0.005488 -0.991314 -1.754762 2.571105 -9.405952 1.172227 -83.902387 -22.822306 10.954887 4.640871 -32.385091 -1.217883 0.344422 -1.774006 -1.693097 12.911722 15.110736 4.129519 56.257874 11.098786 12.269848 -1.476681 45.881578 2.473377 0.000000 0.000000 -0.000000 -3.764394 14.891798 -7.823817 -1.616042 -38.511995 -10.536270 0.000000 -0.000000 -0.000000 -5.647178 -54.739054 -7.755140 -6.793690 1.518085 18.183207 
3.408050 1.149206 -6.033971 173.467317 -23.962588 -178.086566 -0.000000 -0.000000 0.000000 -9.502982 0.690718 5.467816 0.172189 -1.259951 -1.475062 0.000000 0.000000 0.000000 0.799385 -1.479916 -1.042020 1.430770 -21.059917 -11.753201 -0.034924 -0.913417 -1.659138 2.603126 -9.535019 1.198090 -83.548524 -23.084944 10.967264 4.994036 -35.918734 -1.465251 0.319721 -1.696091 -1.494264 12.673151 15.513497 4.199875 56.204944 11.231768 11.987645 -1.671039 46.896915 2.243896 0.000000 0.000000 -0.000000 -3.923594 14.694441 -8.357273 -2.011872 -38.328299 -9.631175 0.000000 -0.000000 -0.000000 -6.073668 -55.904661 -7.118403 -5.914838 2.554477 17.989580 
3.499840 1.182042 -6.144612 173.223837 -24.695981 -177.914321 -0.000000 -0.000000 0.000000 -9.875556 0.600083 5.697785 0.089943 -1.208162 -1.313109 0.000000 0.000000 0.000000 0.769193 -1.470368 -0.939607 1.140585 -18.734773 -12.890764 -0.060377 -0.862513 -1.558731 2.644734 -9.712947 1.235318 -83.210739 -23.318344 10.926601 5.384094 -39.200229 -1.713020 0.298870 -1.636212 -1.320111 12.423217 15.980766 4.268939 56.164212 11.444608 11.690168 -1.859932 47.980106 2.010501 0.000000 0.000000 -0.000000 -4.088262 14.559435 -8.898382 -2.501035 -38.188472 -8.520469 0.000000 -0.000000 -0.000000 -6.304095 -57.124706 -6.574435 -4.944750 3.671904 17.915013 
3.593961 1.212654 -6.254591 172.981968 -25.548780 -177.733860 -0.000000 -0.000000 0.000000 -10.316217 0.423617 5.894858 0.005695 -1.175659 -1.174053 0.000000 0.000000 0.000000 0.731481 -1.469624 -0.867270 0.854365 -16.412786 -13.851066 -0.093415 -0.857394 -1.461542 2.689211 -9.942440 1.279445 -82.885426 -23.513201 10.984855 5.802554 -42.187333 -1.931096 0.275152 -1.579695 -1.291252 12.193475 16.485763 4.324590 56.166987 11.695659 11.508380 -1.982284 49.061141 1.862325 0.000000 0.000000 -0.000000 -4.252237 14.459037 -9.399156 -3.074234 -38.088112 -7.265486 0.000000 -0.000000 -0.000000 -6.534000 -58.315695 -6.061778 -5.121984 4.097027 17.901717 
3.694624 1.244803 -6.363204 172.774917 -26.428063 -177.567755 -0.000000 -0.000000 0.000000 -10.726645 0.184817 5.988660 -0.076637 -1.166948 -1.068075 0.000000 0.000000 0.000000 0.692574 -1.471519 -0.803832 0.601702 -14.212145 -14.684144 -0.135059 -0.856973 -1.393191 2.740803 -10.164254 1.314044 -82.580208 -23.675162 10.995155 6.238984 -44.887886 -2.161418 0.241015 -1.533427 -1.298568 11.972732 17.010232 4.338537 56.194887 11.857534 11.507708 -2.105106 50.160043 1.740115 0.000000 0.000000 -0.000000 -4.406844 14.386082 -9.821085 -3.701179 -38.124653 -5.952253 0.000000 -0.000000 -0.000000 -6.744393 -59.230351 -5.631344 -5.364208 4.442246 17.889333 
3.807677 1.280958 -6.470209 172.584579 -27.115921 -177.428702 -0.000000 -0.000000 0.000000 -11.013531 0.121371 5.962266 -0.173279 -1.186247 -0.965840 0.000000 0.000000 0.000000 0.647077 -1.483214 -0.754128 0.376618 -12.033816 -15.489398 -0.185618 -0.861683 -1.341259 2.789322 -10.367637 1.339866 -82.304807 -23.823604 10.982867 6.651225 -47.228921 -2.409767 0.196597 -1.499622 -1.317050 11.741268 17.508303 4.312723 56.289050 11.933347 11.709790 -2.331849 51.475635 1.543540 0.000000 0.000000 -0.000000 -4.538973 14.347626 -10.107585 -4.321303 -38.253050 -4.732630 0.000000 -0.000000 -0.000000 -6.996908 -59.787987 -5.220981 -5.607496 4.666458 17.806142 
3.935059 1.333013 -6.576586 172.424297 -27.695814 -177.333404 -0.000000 -0.000000 0.000000 -11.190086 0.095613 5.863581 -0.284568 -1.215822 -0.877429 0.000000 0.000000 0.000000 0.577916 -1.492835 -0.723830 0.133124 -9.460517 -16.491296 -0.242327 -0.870532 -1.295758 2.863336 -10.598395 1.358595 -82.043239 -23.927154 10.961733 7.057081 -49.220678 -2.646505 0.140395 -1.474708 -1.345229 11.502246 18.003693 4.198119 56.410693 11.903749 11.957017 -2.629663 53.169578 1.299205 0.000000 0.000000 -0.000000 -4.668029 14.370880 -10.226357 -4.975398 -38.590448 -3.651049 0.000000 -0.000000 -0.000000 -7.153268 -59.836093 -4.931891 -5.835493 4.823380 17.551610 
4.079383 1.424612 -6.682480 172.296125 -28.127581 -177.290506 -0.000000 -0.000000 0.000000 -11.368914 0.044059 5.874500 -0.397260 -1.254293 -0.783442 0.000000 0.000000 0.000000 0.480036 -1.503344 -0.690736 -0.165660 -7.302814 -17.196365 -0.306794 -0.882474 -1.260029 2.960370 -10.819930 1.365991 -81.759994 -24.028690 10.937851 7.473362 -50.958424 -2.858001 0.067741 -1.461947 -1.380283 11.337301 18.503122 4.012764 56.599042 11.900817 12.290122 -2.953131 55.186352 1.032695 0.000000 0.000000 -0.000000 -4.788820 14.534117 -10.149116 -5.614355 -39.193623 -2.698996 0.000000 0.000000 -0.000000 -6.961508 -59.309114 -4.960500 -5.977563 4.947540 17.256305 
4.238811 1.564918 -6.791317 172.200058 -28.533569 -177.294053 -0.000000 -0.000000 0.000000 -11.558534 -0.044552 6.030146 -0.516941 -1.307821 -0.688230 0.000000 0.000000 0.000000 0.366868 -1.512618 -0.655028 -0.543269 -5.581644 -17.595041 -0.373258 -0.900569 -1.229962 3.061215 -10.992695 1.364858 -81.405450 -24.140089 10.929274 7.903133 -52.446799 -3.047338 -0.020886 -1.468150 -1.419281 11.266981 18.960615 3.755276 56.869102 11.932980 12.551764 -3.208644 57.332999 0.778233 0.000000 0.000000 -0.000000 -4.864229 14.739518 -9.881773 -6.317070 -40.004756 -1.959708 -0.000000 0.000000 -0.000000 -6.560357 -58.290187 -5.283732 -5.988399 4.924819 17.099744 
